<svg xmlns="http://www.w3.org/2000/svg" viewBox="0 0 500 500" preserveAspectRatio="xMidYMid slice">
  <defs>
    <linearGradient id="g5bg" x1="0" y1="0" x2="1" y2="1">
      <stop offset="0%" stop-color="#E1D4EC"/>
      <stop offset="100%" stop-color="#F0E8F5"/>
    </linearGradient>
    <linearGradient id="g5t" x1="0" y1="0" x2="1" y2="1">
      <stop offset="0%" stop-color="#F0E8F5"/>
      <stop offset="100%" stop-color="#A791C4"/>
    </linearGradient>
  </defs>
  <rect width="500" height="500" fill="url(#g5bg)"/>

  <!-- Lavender pastel wash torso -->
  <g transform="translate(250,270)">
    <ellipse cx="0" cy="180" rx="90" ry="14" fill="#7A5F9C" opacity="0.18"/>
    <path d="
      M -70,-140 C -80,-110 -85,-70 -80,-30
      C -95,10 -105,60 -100,110
      C -85,140 -35,150 0,150
      C 35,150 85,140 100,110
      C 105,60 95,10 80,-30
      C 85,-70 80,-110 70,-140
      C 50,-160 -50,-160 -70,-140 Z"
      fill="url(#g5t)"/>

    <!-- Watercolor pastel swirl overlay -->
    <ellipse cx="-30" cy="-20" rx="45" ry="30" fill="#CBB8DC" opacity="0.45"/>
    <ellipse cx="30" cy="50" rx="40" ry="28" fill="#F4D4BE" opacity="0.35"/>
    <ellipse cx="10" cy="-80" rx="30" ry="20" fill="#B7C7AD" opacity="0.25"/>
    <ellipse cx="40" cy="100" rx="35" ry="20" fill="#A791C4" opacity="0.3"/>

    <!-- Left highlight -->
    <path d="
      M -70,-140 C -80,-110 -85,-70 -80,-30
      C -95,10 -105,60 -100,110
      C -85,140 -55,150 -35,150
      C -40,100 -45,50 -43,0
      C -48,-50 -55,-100 -60,-135 Z"
      fill="#FBF6EC" opacity="0.3"/>
    <ellipse cx="0" cy="55" rx="3" ry="4" fill="#7A5F9C" opacity="0.3"/>
  </g>
</svg>
